<?xml version="1.0" standalone="no"?>
<!DOCTYPE svg PUBLIC "-//W3C//DTD SVG 20010904//EN"
 "http://www.w3.org/TR/2001/REC-SVG-20010904/DTD/svg10.dtd">
<svg version="1.0" xmlns="http://www.w3.org/2000/svg"
 width="767.000000pt" height="244.000000pt" viewBox="0 0 767.000000 244.000000"
 preserveAspectRatio="xMidYMid meet">
<metadata>
Created by potrace 1.15, written by Peter Selinger 2001-2017
</metadata>
<g transform="translate(0.000000,244.000000) scale(0.100000,-0.100000)"
fill="#000000" stroke="none">
<path d="M5010 2179 c-551 -22 -1203 -103 -1710 -214 -91 -20 -176 -38 -190
-41 l-25 -6 -1 -141 c-1 -124 -4 -154 -28 -232 -51 -169 -133 -291 -260 -387
-91 -69 -175 -112 -251 -129 l-52 -11 -17 -72 c-29 -119 -32 -188 -10 -225 14
-24 16 -36 8 -49 -16 -25 -27 -21 -46 18 -25 50 -40 171 -32 257 l7 74 -41 34
c-53 46 -75 111 -76 227 -1 96 8 116 40 89 17 -13 22 -32 27 -94 5 -75 28
-136 53 -144 7 -2 18 30 28 82 23 116 100 380 130 449 26 57 47 70 65 39 9
-17 10 -17 16 -1 6 15 15 17 49 12 22 -4 45 -10 49 -14 4 -3 -13 -56 -38 -116
-58 -137 -165 -420 -165 -434 0 -21 99 43 165 107 142 137 227 334 224 517 -2
114 10 110 -172 60 -88 -24 -171 -51 -185 -60 -53 -35 -180 -173 -236 -258
-32 -47 -61 -88 -65 -90 -3 -2 -15 2 -26 10 -19 14 -19 16 17 87 21 40 61 101
89 136 28 34 49 65 47 67 -9 8 -431 -136 -683 -234 -238 -93 -655 -272 -678
-292 -7 -6 476 -1000 486 -1000 3 0 45 18 94 41 488 225 1027 415 1577 554
l249 63 33 134 c18 73 33 134 34 135 0 1 -20 -18 -45 -43 -59 -59 -114 -84
-188 -84 -140 0 -204 92 -178 253 24 143 105 259 200 288 38 11 47 10 86 -9
63 -30 79 -59 72 -131 -2 -32 -12 -73 -22 -91 -25 -48 -90 -115 -141 -145 -37
-22 -44 -30 -38 -48 13 -46 61 -60 112 -33 34 18 100 87 142 149 29 44 116
219 168 340 23 52 47 61 62 22 5 -14 15 -25 21 -25 12 0 8 -43 -6 -85 -4 -11
13 9 37 45 25 36 68 86 96 113 46 43 56 47 99 47 26 0 54 -4 62 -9 19 -12 27
-196 12 -291 -20 -126 -78 -227 -156 -267 -39 -21 -162 -44 -192 -37 -13 4
-30 16 -38 27 -8 11 -16 19 -18 16 -4 -4 -47 -217 -47 -230 0 -3 55 5 123 17
313 59 677 106 1042 136 221 18 1070 18 1313 -1 100 -7 185 -12 187 -9 6 6
124 1092 119 1097 -8 8 -326 30 -593 40 -295 12 -485 12 -791 0z m-256 -81 c8
-54 26 -225 26 -252 0 -23 -4 -26 -33 -26 l-33 0 -35 145 -36 145 36 6 c20 3
41 7 46 9 21 7 24 4 29 -27z m518 -157 c4 -4 5 -23 1 -43 l-6 -37 -57 6 c-94
9 -160 -25 -160 -84 0 -43 39 -72 130 -94 143 -34 190 -82 190 -192 0 -73 -36
-124 -111 -157 -60 -26 -188 -38 -229 -22 -23 9 -25 14 -22 52 l4 41 42 -8
c132 -26 232 27 210 111 -9 39 -46 63 -127 81 -135 31 -187 79 -187 174 0 29
7 65 15 81 25 49 99 94 170 103 37 5 127 -3 137 -12z m-852 -231 c59 -30 74
-59 67 -129 -2 -32 -12 -73 -22 -91 -25 -48 -90 -115 -141 -145 -37 -22 -44
-30 -38 -48 8 -29 32 -47 61 -47 75 0 172 108 267 297 34 68 50 91 61 87 8 -4
15 -7 15 -9 0 -1 -18 -45 -39 -97 -102 -245 -203 -347 -344 -348 -140 0 -204
92 -178 253 22 133 88 237 176 278 51 24 67 24 115 -1z"/>
<path d="M4376 1621 c-34 -53 -73 -148 -81 -196 l-7 -40 60 60 c43 44 64 74
76 113 31 94 -2 137 -48 63z"/>
<path d="M3896 1569 c-79 -69 -187 -266 -188 -343 -2 -119 94 -92 156 44 51
112 102 330 78 330 -6 0 -27 -14 -46 -31z"/>
<path d="M6436 1553 c-3 -16 -17 -143 -31 -283 -15 -140 -31 -271 -36 -292
-11 -41 61 -9 -623 -276 -164 -64 -295 -117 -290 -119 19 -6 1727 -213 1731
-209 2 2 -114 135 -257 297 -196 222 -260 300 -260 320 0 23 38 52 325 250
179 123 325 226 325 229 0 5 -847 112 -872 110 -3 0 -9 -12 -12 -27z"/>
<path d="M3346 1441 c-34 -53 -73 -148 -81 -196 l-7 -40 60 60 c43 44 64 74
76 113 31 94 -2 137 -48 63z"/>
<path d="M5340 964 c0 -5 -9 -78 -20 -163 -11 -85 -18 -157 -15 -159 2 -2 182
65 399 149 l394 154 -51 7 c-87 11 -707 22 -707 12z"/>
<path d="M746 456 l-420 -214 45 -12 c24 -7 197 -52 384 -101 259 -67 344 -93
357 -109 16 -20 25 -20 610 -20 l593 1 44 23 45 23 -130 7 c-71 3 -277 11
-459 17 -217 7 -335 15 -344 23 -8 6 -77 137 -153 291 -77 154 -142 281 -146
282 -4 1 -196 -94 -426 -211z"/>
<path d="M2170 367 c-203 -80 -430 -176 -443 -187 -4 -4 88 -10 205 -14 117
-3 298 -9 401 -13 l188 -6 -73 146 c-40 81 -77 147 -83 147 -5 -1 -93 -34
-195 -73z"/>
</g>
</svg>
